<svg width="512.85" height="50.92239087833972" viewBox="0 0 369.5483870967742 36.69355058243527" class="css-1j8o68f"><defs id="SvgjsDefs1389"></defs><g id="SvgjsG1390" featurekey="symbolFeature-0" transform="matrix(0.5724074313725099,0,0,0.5724074313725099,-0.39473973366137455,-9.508240230407166)" fill="#232931"><g xmlns="http://www.w3.org/2000/svg"><path d="M97.066,49.294H84.667c-0.919,0-1.745,0.56-2.085,1.412l-1.541,3.857l-8.542-21.378c-0.34-0.853-1.166-1.412-2.084-1.412   c-0.919,0-1.744,0.559-2.085,1.412l-6.436,16.109H53.06c2.014-5.625,2.044-11.745-0.042-16.634c-1.81-4.24-4.981-7.124-9.169-8.34   c-1.649-0.478-3.265-0.721-4.804-0.721c-5.719,0-9.354,3.237-11.41,5.988c-2.057-2.751-5.691-5.988-11.411-5.988   c-1.539,0-3.155,0.243-4.804,0.722c-4.188,1.215-7.358,4.1-9.168,8.339c-2.501,5.861-1.971,13.493,1.386,19.919   c5.525,10.572,21.96,22.861,22.657,23.38c0.398,0.295,0.868,0.442,1.339,0.442c0.471,0,0.941-0.147,1.339-0.442   c0.671-0.499,15.909-11.895,21.982-22.175h12.46c0.918,0,1.744-0.56,2.085-1.412l4.915-12.303l8.542,21.379   c0.341,0.853,1.166,1.412,2.085,1.412c0.918,0,1.743-0.56,2.085-1.412l3.061-7.664h10.879c1.239,0,2.244-1.005,2.244-2.245   S98.306,49.294,97.066,49.294z M27.634,71.325C23.635,68.192,11.806,58.516,7.617,50.5C4.91,45.316,4.425,39.006,6.381,34.422   c0.881-2.064,2.688-4.744,6.291-5.791c1.242-0.36,2.437-0.543,3.552-0.543c6.129,0,8.861,5.655,9.347,6.789   c0.354,0.825,1.166,1.361,2.064,1.361s1.71-0.536,2.064-1.361c0.485-1.134,3.217-6.789,9.346-6.789c1.115,0,2.31,0.183,3.551,0.543   c3.604,1.047,5.411,3.727,6.291,5.791c1.958,4.583,1.472,10.894-1.235,16.077C43.462,58.516,31.633,68.192,27.634,71.325z"></path></g></g><g id="SvgjsG1391" featurekey="nameFeature-0" transform="matrix(1.1509896283891379,0,0,1.1509896283891379,73.92821954703496,-9.990591423341122)" fill="#232931"><path d="M28.28 35.56 c-1.72 2.72 -5.24 5 -10.8 5 c-9 0 -15.68 -6.12 -15.68 -14.48 c0 -9.6 8.6 -14.64 16.84 -14.64 c5.16 0 8.4 1.96 10.24 4.2 l-5.8 7.8 l-0.12 -0.04 c2.08 -5.56 -0.44 -11.12 -6.56 -11.12 c-4.88 0 -8.64 3.64 -8.64 11.12 c0 8.16 5 15.12 12.44 15.12 c2.92 0 6.08 -1.04 7.8 -3.16 z M38.36 36.12 c0 2.16 0.28 3.28 2.28 3.72 l0 0.16 l-7.72 0 l0.36 -2.48 l0 -23.8 c0 -1.6 -1.04 -1.4 -3.6 -0.64 l0 -0.24 l8.88 -4.16 l-0.2 1.8 l0 25.64 z M46.440000000000005 17.44 c-1.64 0 -2.92 -1.28 -2.92 -2.96 c0 -1.64 1.28 -2.92 2.92 -2.92 s2.92 1.28 2.92 2.92 c0 1.68 -1.28 2.96 -2.92 2.96 z M43.84 40 l0.24 -2.76 l0 -15.36 c-0.56 -0.36 -1.6 -0.64 -2.44 -0.72 l0 -0.16 l7.72 -0.6 l-0.2 2.96 l0 12.92 c0 2.16 0.36 2.92 1.56 3.72 l-6.88 0 z M69.04 40 l0.24 -2.76 l0 -9.52 c0 -4.48 -1.6 -5.52 -3.48 -5.52 c-2.48 0 -4.44 1.6 -5.96 2.72 l0 11.36 c0 2.16 0.36 2.92 1.56 3.72 l-6.88 0 l0.24 -2.76 l0 -15.36 c-0.56 -0.36 -1.6 -0.64 -2.44 -0.72 l0 -0.16 l7.72 -0.6 l-0.2 2.96 l0 0.6 c1.84 -1.28 5 -3.6 8.6 -3.6 c2.52 0 5.92 1.24 5.92 7.28 l0 8.64 c0 2.16 0.36 2.92 1.56 3.72 l-6.88 0 z M82.32000000000001 17.44 c-1.64 0 -2.92 -1.28 -2.92 -2.96 c0 -1.64 1.28 -2.92 2.92 -2.92 s2.92 1.28 2.92 2.92 c0 1.68 -1.28 2.96 -2.92 2.96 z M79.72 40 l0.24 -2.76 l0 -15.36 c-0.56 -0.36 -1.6 -0.64 -2.44 -0.72 l0 -0.16 l7.72 -0.6 l-0.2 2.96 l0 12.92 c0 2.16 0.36 2.92 1.56 3.72 l-6.88 0 z M100.12 40.28 c-6.36 0 -10.72 -3.96 -10.72 -9.72 c0 -6.4 5.36 -10.2 11.6 -10.2 c3.52 0 5.92 1.24 7.16 2.68 l-4 6 l-0.08 0 c1.8 -5.4 -1.2 -8.04 -4.12 -8.08 c-2.84 0 -5.36 2.4 -5.36 7.32 c0 5.64 3.28 10.04 8.16 10.04 c1.64 0 3.92 -0.52 5.16 -2.08 l0.2 0.16 c-1.2 2.16 -3.88 3.88 -8 3.88 z M131.60000000000002 36.72 c0 2.16 0.36 2.84 1.56 3.64 l0 0.12 l-7.64 -1.24 s0.04 0 0.04 -0.04 c-1.28 0.68 -2.88 1.08 -4.76 1.08 c-5.84 0 -9.64 -3.56 -9.64 -9.12 c0 -5.84 4.08 -10.8 12.56 -10.8 c2.56 0 5.32 0.48 7.88 1.48 l0 14.88 z M116.24000000000001 28.84 c0 5.8 3.04 10.16 7.08 10.16 c1.32 0 2.32 -0.48 3.12 -1.36 c0.04 -0.4 0.08 -0.84 0.08 -1.44 l0 -12.92 c-1.24 -1.36 -2.68 -2.16 -4.6 -2.16 c-3.76 0 -5.68 3.08 -5.68 7.72 z M165.60000000000002 12 l1.48 7.04 l-0.16 0.08 c-3.04 -4.48 -4.6 -6.48 -9.76 -6.48 l-5.28 0 l0 13.44 l3.72 0 c4.92 0 6.84 -1.08 7.8 -4.76 l0 10.12 c-0.96 -3.64 -2.88 -4.72 -7.8 -4.72 l-3.72 0 l0 11 c0 1.44 1.4 1.88 3.04 2.08 l0 0.2 l-11.56 0 l0 -0.2 c1.64 -0.6 3.04 -1.44 3.04 -2.88 l0 -22.64 c0 -1.44 -1.4 -1.88 -3.04 -2.08 l0 -0.2 l22.24 0 z M180.12000000000003 20.36 c6.44 0 10.64 3.96 10.64 9.96 c0 5.88 -4.2 9.96 -10.64 9.96 s-10.64 -3.96 -10.64 -9.96 c0 -5.88 4.2 -9.96 10.64 -9.96 z M181.68000000000004 39.6 c2.88 0 4.2 -2.4 4.2 -6.2 c0 -5.36 -2.48 -12.36 -7.32 -12.36 c-2.88 0 -4.2 2.36 -4.2 6.24 c0 5.32 2.52 12.32 7.32 12.32 z M204.68 40.28 c-6.36 0 -10.72 -3.96 -10.72 -9.72 c0 -6.4 5.36 -10.2 11.6 -10.2 c3.52 0 5.92 1.24 7.16 2.68 l-4 6 l-0.08 0 c1.8 -5.4 -1.2 -8.04 -4.12 -8.08 c-2.84 0 -5.36 2.4 -5.36 7.32 c0 5.64 3.28 10.04 8.16 10.04 c1.64 0 3.92 -0.52 5.16 -2.08 l0.2 0.16 c-1.2 2.16 -3.88 3.88 -8 3.88 z M236.48000000000002 38.72 c0.56 0.36 1.6 0.64 2.24 0.72 l0 0.16 l-7.32 0.6 l0 -3.48 c-1.88 1.48 -5.04 3.56 -8.72 3.56 c-2.4 0 -5.8 -1.24 -5.8 -7.28 l0 -8.6 c0 -2.16 -0.36 -2.92 -2.16 -3.72 l0 -0.08 l7.48 0 l-0.24 2.76 l0 9.56 c0 4.48 1.6 5.48 3.36 5.48 c2.56 0 4.48 -1.36 6.08 -2.64 l0 -11.36 c0 -2.16 -0.36 -2.92 -2.16 -3.72 l0 -0.08 l7.48 0 l-0.24 2.76 l0 15.36 z M248.68 40.28 c-3.08 0 -6.36 -1.04 -7.96 -2.36 l2.52 -4.08 l0.08 0 c-0.12 3.48 3.56 5.76 6.88 5.76 c2.4 0 3.48 -1.12 3.48 -3 c0 -2.44 -1.8 -3.56 -5.2 -4.04 c-6.12 -0.8 -7.36 -4.2 -7.36 -6.44 c0 -3.6 3.36 -5.76 8.04 -5.76 c3.16 0 5.64 1 7.12 2.36 l-2.72 3.76 l-0.08 0 c0.24 -3.2 -2.84 -5.52 -5.76 -5.52 c-2.64 0 -3.08 1.8 -3.08 2.88 c0 2.52 2.2 3.44 4.92 3.92 c4.56 0.8 7.28 2.84 7.28 6.2 c0 3.64 -3.2 6.32 -8.16 6.32 z"></path></g></svg>